<?xml version="1.0" ?><svg viewBox="0 0 96 96" xmlns="http://www.w3.org/2000/svg"><title/><path d="M82,38V36h4a1.9988,1.9988,0,0,0,2-2V28a1.9966,1.9966,0,0,0-1.1445-1.8066l-38-18a1.9886,1.9886,0,0,0-1.711,0l-38,18A1.9966,1.9966,0,0,0,8,28v6a1.9988,1.9988,0,0,0,2,2h4v2a5.99,5.99,0,0,0,4,5.6316V68.3684A5.99,5.99,0,0,0,14,74v2H10a1.9988,1.9988,0,0,0-2,2v8a1.9988,1.9988,0,0,0,2,2H86a1.9988,1.9988,0,0,0,2-2V78a1.9988,1.9988,0,0,0-2-2H82V74a5.99,5.99,0,0,0-4-5.6316V43.6316A5.99,5.99,0,0,0,82,38Zm-4,0a2.0026,2.0026,0,0,1-2,2H68a2.0026,2.0026,0,0,1-2-2V36H78ZM74,68H70V44h4ZM62,74v2H58V74a5.99,5.99,0,0,0-4-5.6316V43.6316A5.99,5.99,0,0,0,58,38V36h4v2a5.99,5.99,0,0,0,4,5.6316V68.3684A5.99,5.99,0,0,0,62,74ZM34,76V74a5.99,5.99,0,0,0-4-5.6316V43.6316A5.99,5.99,0,0,0,34,38V36h4v2a5.99,5.99,0,0,0,4,5.6316V68.3684A5.99,5.99,0,0,0,38,74v2ZM22,44h4V68H22Zm24,0h4V68H46Zm6-4H44a2.0026,2.0026,0,0,1-2-2V36H54v2A2.0026,2.0026,0,0,1,52,40ZM42,74a2.0038,2.0038,0,0,1,2-2h8a2.0038,2.0038,0,0,1,2,2v2H42ZM12,29.2656,48,12.2129,84,29.2656V32H12ZM30,36v2a2.0026,2.0026,0,0,1-2,2H20a2.0026,2.0026,0,0,1-2-2V36ZM18,74a2.0038,2.0038,0,0,1,2-2h8a2.0038,2.0038,0,0,1,2,2v2H18ZM84,84H12V80H84ZM66,76V74a2.0038,2.0038,0,0,1,2-2h8a2.0038,2.0038,0,0,1,2,2v2Z" fill="#646464"/></svg>