<?xml version="1.0" ?><!DOCTYPE svg  PUBLIC '-//W3C//DTD SVG 1.1//EN'  'http://www.w3.org/Graphics/SVG/1.1/DTD/svg11.dtd'><svg enable-background="new 0 0 512 512" height="512px" id="Layer_1" version="1.1" viewBox="0 0 512 512" width="512px" xml:space="preserve" xmlns="http://www.w3.org/2000/svg" xmlns:xlink="http://www.w3.org/1999/xlink"><g><path d="M2312.688-167.938c2.048,4.344,1.688,9.438-0.969,13.469c-2.625,4.031-7.188,6.469-12.094,6.469h-259.266   c-4.898,0-9.461-2.438-12.103-6.5c-2.641-4.031-2.983-9.094-0.93-13.438c11.766-24.906,45.094-45.063,88.483-54.406l-50.172-68.103   c0.125,0,0.234,0.031,0.359,0.031c20.727,0,38.772-11.094,48.922-27.563l66.483,90.227c18.75,0.781,36.47,3.5,52.595,7.75v-9.063   c0-8.25,6.688-14.938,14.969-14.938h2.063c8.281,0,14.969,6.688,14.969,14.938v20.469   C2288.469-198.094,2305.094-184,2312.688-167.938z M2066-308.008c22.094,0,40-17.906,40-40c0-22.094-17.906-40-40-40   s-40,17.906-40,40C2026-325.914,2043.906-308.008,2066-308.008z M2403.844-510.383c-57.719-57.734-116.391-37.563-116.391-37.563   l-46.938-46.938c-24.891-24.875-67.75-22.344-95.741,5.641c-28.009,28-30.517,70.859-5.634,95.75l8.931,8.922l-75.009,79.688   c20.306,2.516,37.359,15.422,45.438,33.422l66.375-70.5c-3.328,14.719-9.531,63.531,38.75,111.797   c14.844,14.859,53.016,1.859,93.063-29.125c-8.281-1.797-16.625-5.109-24.406-9.734c-20.672,15.5-37.094,23.063-42.155,18   c-7.97-7.984,15.313-44.172,52-80.859c36.672-36.688,72.891-59.984,80.875-52c5.047,5.063-2.531,21.531-18.095,42.219   c4.563,7.641,7.906,15.969,9.75,24.438C2405.688-457.305,2418.719-495.523,2403.844-510.383z M2338.313-440.445   c-7.25,6.094-14.952,12.922-23.391,21.359s-15.266,16.141-21.359,23.391c0.438,0.392,0.906,0.781,1.359,1.156   c16.922,14.422,41.016,19.641,52.609,8.047c11.594-11.578,6.344-35.688-8.063-52.609   C2339.094-439.555,2338.703-440.008,2338.313-440.445z" fill="#4D4D4D"/><rect fill="none" height="512" width="512" x="1962" y="-628"/></g><g><path d="M510.313,66.328c-1.641-1.813-4.141-2.578-6.5-1.953L5.736,192.063c-3,0.719-5.266,3.188-5.672,6.25   c-0.406,3.062,1.109,6.031,3.828,7.5l117.719,63.625l15.922,139.625c0.234,2.625,1.828,4.938,4.188,6.125   c2.36,1.188,5.172,1.063,7.422-0.344l100.313-65.422l112.593,96.797c1.828,1.563,4.313,2.156,6.656,1.563s4.25-2.281,5.094-4.531   L511.579,73C512.438,70.719,511.954,68.156,510.313,66.328z M197.111,301.375l-36.484,77.094l-14.609-117.75l363.937-194.5   L197.111,301.375z" fill="#4D4D4D"/></g></svg>