<?xml version="1.0" standalone="no"?>
<!DOCTYPE svg PUBLIC "-//W3C//DTD SVG 20010904//EN"
 "http://www.w3.org/TR/2001/REC-SVG-20010904/DTD/svg10.dtd">
<svg version="1.0" xmlns="http://www.w3.org/2000/svg"
 width="225.000000pt" height="225.000000pt" viewBox="0 0 225.000000 225.000000"
 preserveAspectRatio="xMidYMid meet">
<metadata>
Created by potrace 1.11, written by Peter Selinger 2001-2013
</metadata>
<g transform="translate(0.000000,225.000000) scale(0.100000,-0.100000)"
fill="#000000" stroke="none">
<path d="M0 1125 l0 -1125 1125 0 1125 0 0 1125 0 1125 -1125 0 -1125 0 0
-1125z m1290 862 l0 -88 -87 3 -88 3 -3 43 -3 43 38 -3 c40 -3 49 -21 13 -26
-42 -7 -18 -22 35 -22 59 0 63 5 49 58 -6 21 -11 22 -116 22 -109 0 -110 0
-105 -22 3 -13 11 -53 18 -90 l12 -68 36 6 c32 5 135 -5 216 -21 29 -6 32 -4
89 97 32 57 60 104 61 106 2 2 275 -155 283 -163 6 -5 -80 -146 -87 -143 -51
24 -141 83 -141 92 0 9 15 36 36 64 1 2 16 -4 34 -13 37 -19 35 -41 -4 -37
-14 1 -26 1 -26 -2 0 -5 92 -58 95 -54 8 13 27 69 24 72 -20 20 -184 105 -189
99 -4 -4 -19 -42 -33 -84 l-25 -77 26 -11 c37 -17 121 -75 166 -115 l40 -35
30 18 c147 88 179 103 187 90 5 -8 43 -72 84 -143 l75 -130 -43 -24 c-23 -13
-56 -32 -74 -43 l-31 -20 -41 74 c-23 41 -41 79 -41 84 0 5 16 17 35 26 34 16
35 16 51 -8 9 -14 13 -32 9 -42 -6 -16 -8 -16 -25 5 -30 36 -30 11 -1 -40 l27
-46 31 26 32 27 -48 82 c-25 46 -51 87 -57 93 -8 8 -30 -5 -77 -46 l-66 -57
18 -26 c29 -41 52 -90 77 -161 l23 -65 122 -5 122 -5 1 -163 1 -163 -85 3 -85
3 0 85 0 85 43 3 43 3 -3 -36 c-3 -38 -21 -49 -26 -15 -7 42 -22 18 -22 -35 0
-59 5 -63 58 -49 21 6 22 11 22 116 0 109 0 110 -22 105 -13 -3 -53 -11 -89
-17 l-67 -12 5 -38 c5 -33 -8 -151 -23 -220 -5 -23 3 -30 99 -85 96 -54 104
-61 95 -80 -28 -55 -151 -265 -155 -265 -7 0 -143 80 -143 85 0 12 83 145 91
145 13 0 69 -29 69 -36 0 -13 -32 -64 -40 -64 -16 0 -22 20 -10 35 7 8 7 15 1
19 -7 5 -61 -74 -61 -89 0 -5 71 -27 75 -23 19 19 104 183 98 188 -4 4 -42 19
-83 32 l-76 25 -31 -56 c-17 -31 -54 -82 -82 -114 l-52 -59 19 -31 c62 -103
103 -179 99 -183 -2 -2 -66 -40 -142 -84 l-139 -79 -16 27 c-9 15 -28 48 -43
74 l-27 47 75 41 c41 23 79 38 85 35 6 -3 17 -19 25 -35 15 -28 14 -30 -10
-46 -14 -9 -32 -13 -42 -9 -16 6 -16 8 5 25 12 10 19 21 15 23 -10 6 -93 -42
-93 -53 0 -5 10 -20 23 -34 l22 -25 85 50 c47 28 89 55 94 59 5 5 -17 37 -49
73 l-57 65 -58 -35 c-32 -19 -89 -45 -127 -58 l-68 -24 -5 -123 -5 -123 -162
0 -163 0 0 88 0 87 90 0 90 0 0 -46 0 -45 -35 3 c-40 3 -52 21 -17 26 44 7 21
22 -33 22 -59 0 -63 -5 -49 -57 6 -22 11 -23 116 -23 109 0 110 0 105 22 -3
13 -11 53 -18 90 l-12 66 -32 -5 c-28 -5 -164 9 -225 23 -23 5 -29 -2 -69 -73
-25 -43 -52 -90 -61 -105 l-16 -27 -139 79 c-76 44 -140 82 -142 84 -5 4 75
146 82 146 12 0 145 -83 145 -91 0 -13 -29 -69 -36 -69 -13 0 -64 32 -64 40 0
16 19 21 40 10 12 -6 20 -7 20 -1 0 8 -91 65 -95 59 -8 -12 -27 -69 -24 -72
28 -24 184 -105 189 -99 4 4 19 42 32 84 l25 75 -46 25 c-25 13 -77 49 -115
79 -38 30 -72 54 -76 53 -3 -1 -50 -27 -104 -58 -54 -31 -99 -55 -101 -53 -8
8 -165 281 -163 283 2 1 35 20 75 42 l72 41 41 -71 c22 -39 39 -76 36 -83 -3
-7 -19 -20 -35 -29 -29 -15 -31 -14 -47 10 -9 14 -13 32 -9 42 6 17 8 16 25
-4 9 -12 20 -20 23 -17 6 7 -42 94 -53 94 -4 0 -19 -9 -33 -20 -26 -21 -26
-21 -8 -53 70 -125 84 -148 91 -152 5 -3 37 20 73 51 l65 56 -35 58 c-19 32
-45 89 -58 127 l-24 68 -123 5 -123 5 1 140 c0 77 2 150 2 163 2 21 6 22 87
22 l85 0 0 -90 0 -90 -45 0 -45 0 0 40 c0 29 4 40 15 40 9 0 15 -10 15 -26 0
-14 4 -23 10 -19 5 3 10 28 10 56 0 52 -6 57 -57 43 -22 -6 -23 -11 -23 -116
l0 -110 27 6 c16 3 56 10 89 17 l62 11 -5 38 c-5 33 8 151 23 220 5 23 -2 29
-73 69 -43 25 -90 52 -105 61 l-27 16 80 140 c44 76 82 141 84 142 4 4 145
-77 145 -83 0 -12 -83 -145 -91 -145 -13 0 -69 29 -69 36 0 13 32 64 40 64 16
0 22 -20 10 -35 -7 -8 -7 -15 -1 -19 8 -5 67 84 59 89 -12 8 -69 27 -72 24
-22 -24 -106 -183 -99 -189 4 -4 42 -19 83 -32 l76 -25 32 57 c17 32 54 84 81
116 l49 59 -60 103 c-33 57 -58 105 -56 108 3 2 67 40 143 84 l139 79 16 -27
c9 -15 28 -48 43 -74 l27 -47 -75 -41 c-41 -23 -79 -38 -85 -35 -6 3 -17 19
-25 35 -15 28 -14 30 10 46 14 9 32 13 42 9 16 -6 16 -8 -5 -25 -12 -10 -19
-21 -15 -23 9 -6 93 41 93 52 0 3 -10 18 -23 33 l-22 27 -84 -49 c-46 -26 -87
-52 -93 -58 -6 -6 12 -33 47 -75 l56 -66 59 35 c32 20 89 46 127 59 l68 24 3
123 3 123 164 0 165 0 0 -88z"/>
<path d="M985 1764 c-184 -39 -360 -176 -442 -344 -95 -193 -95 -394 -2 -588
57 -118 170 -231 289 -289 151 -74 330 -92 480 -47 165 48 323 181 399 334
128 261 81 550 -124 756 -65 65 -98 90 -166 122 -141 68 -286 87 -434 56z
m203 -96 l3 -58 -66 0 -65 0 0 60 0 61 63 -3 62 -3 3 -57z m-276 -51 l27 -46
-55 -30 -55 -29 -29 51 c-32 57 -32 56 38 93 36 19 42 15 74 -39z m525 25 l42
-28 -30 -51 -30 -52 -53 32 -53 32 26 47 c14 26 33 48 41 48 8 0 34 -13 57
-28z m-207 -98 c217 -49 359 -265 322 -488 -32 -189 -169 -325 -359 -358 -137
-23 -274 21 -374 121 -234 235 -128 640 190 723 83 21 134 22 221 2z m-499
-124 c2 -3 -10 -28 -26 -57 l-30 -52 -48 30 c-26 16 -47 33 -47 39 0 5 12 29
27 54 l27 45 47 -27 c26 -15 49 -29 50 -32z m933 -47 c-5 -8 -27 -24 -49 -37
l-40 -24 -32 54 -32 53 52 30 52 30 29 -47 c19 -30 25 -50 20 -59z m-1024
-248 l0 -65 -60 0 -60 0 0 58 c0 32 3 62 7 65 3 4 30 7 60 7 l53 0 0 -65z
m1085 0 l0 -60 -57 -3 -58 -3 0 66 0 66 58 -3 57 -3 0 -60z m-991 -293 c1 -1
-21 -16 -49 -32 l-49 -29 -23 33 c-41 62 -39 78 14 107 l48 26 29 -51 c16 -28
30 -52 30 -54z m938 48 c5 -3 -7 -29 -25 -57 l-32 -52 -51 30 -52 29 32 54 31
54 45 -26 c25 -14 48 -28 52 -32z m-754 -240 c-39 -65 -40 -65 -97 -35 l-50
28 16 31 c9 17 22 41 30 53 l14 21 54 -31 53 -32 -20 -35z m530 48 l31 -52
-42 -28 c-23 -15 -49 -28 -57 -28 -8 0 -27 23 -42 50 l-28 50 33 14 c17 8 41
21 52 30 11 8 21 16 22 16 1 0 15 -23 31 -52z m-260 -105 l-3 -58 -62 -3 -63
-3 0 61 0 60 65 0 66 0 -3 -57z"/>
<path d="M1025 1476 c-151 -48 -252 -173 -263 -326 -16 -225 166 -404 394
-387 351 26 456 493 153 679 -71 44 -203 60 -284 34z m239 -70 c112 -55 182
-174 173 -296 -8 -120 -71 -216 -175 -267 -48 -24 -70 -28 -137 -28 -67 0 -89
4 -137 28 -251 123 -229 485 35 579 73 26 168 19 241 -16z"/>
</g>
</svg>
