<?xml version="1.0" standalone="no"?>
<!DOCTYPE svg PUBLIC "-//W3C//DTD SVG 20010904//EN"
 "http://www.w3.org/TR/2001/REC-SVG-20010904/DTD/svg10.dtd">
<svg version="1.0" xmlns="http://www.w3.org/2000/svg"
 width="1024.000000pt" height="344.000000pt" viewBox="0 0 1024.000000 344.000000"
 preserveAspectRatio="xMidYMid meet">
<metadata>
Created by potrace 1.16, written by Peter Selinger 2001-2019
</metadata>
<g transform="translate(0.000000,344.000000) scale(0.100000,-0.100000)"
fill="#000000" stroke="none">
<path d="M1408 3219 l-3 -221 -87 -29 c-96 -31 -280 -115 -330 -150 l-32 -23
-63 68 c-35 38 -81 90 -103 116 l-40 48 127 75 c187 109 211 122 215 117 2 -3
22 -28 45 -55 l41 -51 -27 -15 c-14 -8 -52 -30 -83 -48 -32 -18 -58 -28 -58
-22 0 7 11 17 25 23 29 13 34 48 9 69 -14 11 -24 9 -70 -16 -38 -21 -54 -35
-54 -50 0 -25 56 -124 75 -131 7 -3 58 22 114 55 55 34 116 69 136 78 19 9 35
20 35 23 0 4 -35 69 -78 146 -51 89 -84 138 -93 136 -22 -5 -518 -296 -519
-304 0 -4 50 -91 111 -193 l111 -186 -59 -66 c-88 -99 -145 -180 -188 -266
-29 -58 -43 -76 -54 -72 -9 4 -43 13 -76 22 -53 14 -194 61 -204 69 -2 2 41
79 94 172 l98 169 61 -24 c33 -14 62 -26 64 -27 7 -7 -91 -165 -99 -160 -5 3
-2 15 6 27 8 12 15 30 15 40 0 18 -36 38 -55 31 -16 -7 -67 -104 -62 -118 7
-17 111 -76 135 -76 13 0 27 18 46 58 16 31 48 92 73 135 25 42 43 83 40 90
-2 6 -64 48 -137 91 -107 65 -133 77 -141 65 -24 -38 -289 -498 -294 -511 -5
-12 10 -24 55 -47 34 -16 122 -65 196 -108 98 -57 132 -82 128 -93 -21 -57
-37 -179 -43 -320 l-6 -164 -135 -28 c-74 -15 -143 -27 -152 -28 -17 0 -18 15
-18 189 0 211 -7 195 83 206 l57 7 0 -96 c0 -57 -4 -96 -10 -96 -5 0 -10 18
-10 40 0 31 -4 40 -17 41 -51 4 -63 -8 -63 -64 0 -69 10 -77 100 -77 l80 0 0
164 0 163 -77 7 c-42 3 -114 6 -160 6 l-83 0 0 -310 0 -310 221 -2 221 -3 22
-75 c22 -78 103 -259 121 -272 5 -4 6 -8 2 -8 -5 0 6 -20 24 -45 l33 -45 -30
-31 c-16 -17 -68 -64 -116 -105 l-86 -74 -97 170 -98 170 29 23 c15 12 39 29
53 38 24 14 27 14 42 -5 32 -43 80 -136 70 -136 -7 0 -17 11 -23 25 -15 34
-78 32 -78 -2 0 -29 54 -113 74 -113 24 0 136 68 136 83 0 7 -34 68 -75 136
-41 68 -75 128 -75 132 0 16 -15 10 -96 -36 -43 -25 -107 -60 -142 -76 -47
-23 -62 -35 -57 -46 3 -9 72 -130 152 -270 111 -191 151 -252 163 -248 8 3 95
54 193 112 l179 106 41 -40 c107 -102 182 -156 290 -209 42 -21 76 -43 74 -49
-2 -5 -23 -72 -47 -147 -24 -76 -47 -138 -52 -138 -6 0 -246 137 -319 183 -15
9 -14 16 8 71 14 34 26 62 28 64 7 7 164 -91 159 -99 -3 -5 -15 -2 -27 6 -12
8 -29 15 -38 15 -23 0 -42 -25 -35 -47 8 -23 100 -75 120 -67 19 7 76 107 76
132 0 12 -25 31 -82 61 -46 23 -107 56 -136 73 -29 16 -58 28 -66 25 -12 -5
-166 -251 -166 -265 1 -8 497 -299 519 -304 9 -2 51 60 118 177 57 99 107 185
111 192 5 8 27 6 87 -9 57 -14 128 -21 248 -25 160 -5 167 -6 172 -27 10 -43
55 -269 55 -277 0 -5 -85 -9 -189 -9 -211 0 -195 -7 -206 83 l-7 57 96 0 c57
0 96 -4 96 -10 0 -5 -18 -10 -40 -10 -22 0 -40 -4 -40 -9 0 -5 -3 -16 -6 -24
-9 -25 24 -47 70 -47 68 0 77 13 74 100 l-3 75 -161 3 -161 2 -7 -31 c-3 -17
-6 -89 -6 -160 l0 -129 310 0 310 0 0 225 c0 198 2 225 16 225 49 0 338 123
405 172 l30 22 55 -59 c31 -33 77 -85 104 -116 l50 -56 -165 -97 c-90 -53
-168 -96 -172 -95 -4 0 -27 24 -49 53 l-42 52 81 47 c45 25 84 44 87 41 5 -5
-9 -17 -45 -39 -22 -14 -12 -51 16 -60 24 -8 112 44 117 68 4 20 -55 126 -73
134 -8 2 -71 -30 -141 -71 -70 -42 -131 -76 -136 -76 -4 0 -8 -4 -8 -9 0 -7
115 -226 148 -281 7 -11 34 1 143 64 74 43 193 113 264 154 72 41 131 76 133
77 4 3 -65 125 -147 262 l-74 123 64 72 c88 99 108 128 169 241 41 73 58 96
69 92 9 -4 43 -13 76 -22 51 -13 193 -61 203 -69 2 -1 -40 -79 -94 -172 l-98
-169 -60 24 c-34 14 -62 26 -64 28 -8 7 91 165 100 159 5 -4 3 -13 -6 -23 -22
-24 -20 -58 4 -71 25 -14 35 -8 64 38 44 71 43 76 -22 116 -88 53 -92 51 -148
-56 -26 -51 -60 -115 -76 -142 -16 -27 -28 -50 -26 -51 13 -11 270 -165 276
-165 9 0 312 523 307 530 -2 3 -90 55 -195 115 -166 95 -190 112 -185 130 26
91 38 183 44 320 l6 159 135 28 c74 15 143 27 153 28 16 0 17 -16 17 -189 0
-214 8 -194 -87 -206 l-53 -7 0 96 c0 57 4 96 10 96 6 0 10 -17 10 -39 0 -40
14 -52 53 -43 15 3 17 13 15 70 l-3 67 -82 3 -83 3 0 -164 0 -164 77 -7 c42
-3 114 -6 160 -6 l83 0 0 310 0 310 -221 2 -221 3 -33 101 c-18 55 -53 138
-79 185 -25 46 -46 89 -46 94 -1 6 -12 24 -25 40 l-23 31 116 102 c64 55 117
100 119 98 2 -1 45 -76 97 -167 104 -180 103 -169 30 -220 l-43 -29 -45 75
c-25 42 -46 78 -46 80 0 14 18 2 30 -20 15 -29 51 -33 71 -9 11 14 9 23 -13
62 -40 70 -48 73 -123 32 -36 -19 -65 -42 -65 -50 0 -8 34 -71 75 -140 41 -68
76 -128 78 -134 4 -11 292 145 291 158 0 14 -298 526 -306 526 -3 0 -90 -50
-192 -110 l-186 -111 -85 75 c-99 86 -162 129 -258 177 -79 39 -78 22 -14 213
l42 124 159 -94 c88 -51 164 -98 169 -103 8 -8 -29 -131 -40 -131 -16 0 -162
94 -157 101 3 5 15 3 27 -6 12 -8 29 -15 39 -15 20 0 40 32 33 52 -7 18 -110
72 -123 64 -17 -10 -72 -112 -72 -133 0 -14 33 -37 135 -91 75 -40 140 -72
144 -72 13 0 177 269 169 275 -2 1 -61 36 -133 77 -71 41 -185 107 -252 147
-67 39 -128 74 -137 77 -10 4 -23 -10 -42 -48 -22 -44 -181 -326 -189 -336 -2
-2 -29 4 -61 12 -103 26 -193 37 -318 37 l-121 0 -30 154 -30 155 191 0 c218
0 195 10 209 -92 l7 -48 -96 0 c-53 0 -96 4 -96 9 0 6 17 11 38 13 33 3 37 6
40 32 4 34 -10 46 -58 46 -78 0 -80 -3 -80 -96 l0 -84 165 0 165 0 0 38 c0 22
3 94 7 160 l6 122 -311 0 -312 0 -2 -221z m542 -345 c124 -22 184 -41 286 -90
176 -83 350 -241 479 -433 65 -98 120 -212 131 -275 3 -17 11 -56 19 -86 37
-145 37 -383 0 -537 -8 -34 -17 -76 -20 -93 -20 -113 -160 -341 -292 -474
-227 -231 -487 -338 -823 -338 -312 -1 -559 85 -766 265 -198 172 -351 415
-388 613 -22 120 -29 188 -30 294 0 105 6 162 29 290 51 278 310 606 600 761
211 112 505 152 775 103z"/>
<path d="M1633 2823 l-33 -4 0 -117 0 -117 120 0 120 0 0 116 0 116 -46 7
c-48 6 -104 6 -161 -1z"/>
<path d="M1235 2714 c-16 -9 -59 -35 -95 -57 -36 -23 -66 -42 -68 -43 -4 -2
109 -204 115 -204 2 0 23 13 46 29 23 15 67 41 97 56 30 15 57 29 58 30 5 4
-112 205 -118 204 -3 0 -18 -7 -35 -15z"/>
<path d="M2106 2629 c-32 -55 -57 -102 -55 -103 2 -2 29 -16 59 -31 30 -15 74
-41 97 -56 23 -16 44 -29 46 -29 7 0 107 186 107 198 0 14 -171 122 -192 122
-2 0 -30 -45 -62 -101z"/>
<path d="M1546 2493 c-311 -66 -538 -298 -602 -613 -20 -100 -15 -280 11 -375
22 -84 96 -229 150 -297 83 -104 257 -214 400 -253 81 -22 253 -30 342 -16
236 37 447 179 559 377 163 289 131 670 -76 919 -83 99 -225 193 -362 239
-113 38 -297 46 -422 19z m324 -138 c100 -26 210 -79 273 -131 57 -46 159
-174 140 -174 -4 0 -3 -4 3 -8 15 -10 59 -126 73 -190 15 -71 13 -204 -3 -272
-15 -60 -55 -172 -65 -180 -3 -3 -7 -11 -9 -18 -5 -28 -89 -126 -144 -171 -62
-50 -172 -102 -271 -128 -79 -20 -268 -14 -341 12 -233 81 -352 200 -432 435
-15 44 -19 83 -19 195 1 129 3 146 28 210 16 39 29 75 30 80 7 31 78 128 134
182 70 68 151 112 273 149 90 28 245 32 330 9z"/>
<path d="M1579 2285 c-179 -44 -339 -186 -405 -360 -35 -92 -44 -249 -20 -343
35 -138 114 -253 232 -338 92 -65 181 -95 304 -101 247 -13 454 114 563 344
l32 68 0 165 0 165 -32 68 c-81 170 -226 292 -395 332 -77 18 -204 18 -279 0z"/>
<path d="M770 2285 c-45 -71 -67 -113 -58 -119 35 -23 200 -117 203 -114 1 1
15 28 30 58 15 30 41 75 58 99 l30 44 -24 18 c-13 10 -33 22 -43 25 -10 3 -41
19 -68 35 -27 16 -56 29 -64 29 -8 0 -37 -34 -64 -75z"/>
<path d="M2576 2352 c-3 -5 -41 -26 -85 -47 -45 -22 -81 -43 -81 -48 0 -5 13
-27 29 -50 15 -23 41 -67 56 -97 15 -30 29 -57 30 -58 3 -3 117 62 203 114 6
4 -25 63 -66 127 -41 62 -71 83 -86 59z"/>
<path d="M616 1803 c-3 -21 -6 -58 -6 -83 0 -25 3 -62 6 -82 l7 -38 119 0
c120 0 120 0 114 23 -3 12 -6 66 -6 120 l0 97 -114 0 -113 0 -7 -37z"/>
<path d="M2585 1720 l0 -120 116 0 116 0 6 60 c4 33 4 87 0 120 l-6 60 -116 0
-116 0 0 -120z"/>
<path d="M808 1332 c-53 -31 -97 -61 -97 -67 -1 -16 95 -168 113 -180 11 -7
22 -6 38 4 11 7 52 28 89 47 37 19 71 38 74 43 3 5 -8 29 -24 53 -16 24 -42
69 -57 101 -16 31 -31 57 -34 56 -3 0 -49 -26 -102 -57z"/>
<path d="M2504 1348 c-10 -24 -36 -69 -56 -101 -21 -32 -38 -61 -38 -66 0 -5
21 -18 48 -30 26 -11 71 -34 101 -50 l53 -30 35 52 c48 71 87 151 77 154 -5 2
-51 28 -101 58 -51 30 -94 55 -96 55 -2 0 -13 -19 -23 -42z"/>
<path d="M1126 929 c-31 -56 -56 -102 -54 -103 2 -1 28 -18 59 -38 61 -39 139
-81 144 -76 12 15 116 200 113 202 -1 2 -28 16 -58 31 -30 15 -74 41 -97 56
-23 16 -44 29 -46 29 -2 0 -30 -46 -61 -101z"/>
<path d="M2210 1004 c-19 -14 -62 -39 -95 -56 -33 -17 -62 -32 -64 -34 -3 -2
103 -190 114 -202 10 -10 195 104 195 120 0 14 -101 198 -108 198 -4 -1 -23
-12 -42 -26z"/>
<path d="M1600 738 l0 -116 60 -7 c33 -4 87 -4 120 0 l60 7 0 116 0 117 -120
0 -120 0 0 -117z"/>
<path d="M5735 2910 c-90 -12 -224 -49 -280 -78 -62 -31 -151 -105 -211 -174
-48 -56 -120 -193 -128 -243 -3 -16 -12 -68 -22 -115 -13 -67 -15 -116 -11
-230 7 -176 25 -260 76 -365 119 -240 360 -375 672 -375 466 0 777 296 806
767 7 116 -9 254 -39 347 -67 205 -225 375 -398 426 -73 22 -171 42 -177 37
-1 -2 -4 -22 -5 -45 -1 -47 18 -76 59 -86 13 -4 42 -18 63 -31 116 -73 190
-211 226 -418 23 -128 15 -399 -15 -510 -69 -262 -211 -377 -467 -377 -181 0
-280 36 -377 139 -143 152 -198 357 -177 663 10 159 28 236 76 335 77 155 223
242 409 243 l50 0 0 -90 c0 -78 -2 -90 -17 -90 -13 0 -18 11 -20 48 -3 40 -6
47 -26 50 -39 6 -52 -15 -52 -78 0 -91 -2 -90 106 -90 l94 0 0 175 0 175 -77
-1 c-43 -1 -105 -5 -138 -9z"/>
<path d="M4400 2871 c-253 -29 -423 -215 -408 -445 11 -175 115 -274 442 -422
72 -32 155 -77 185 -99 113 -83 145 -204 87 -328 -50 -105 -136 -149 -293
-148 -50 0 -118 8 -158 18 l-70 18 -32 123 -31 122 24 0 c21 0 24 -5 24 -37 0
-51 11 -65 46 -61 29 3 29 4 32 77 2 53 -1 77 -10 82 -21 14 -162 11 -180 -3
-18 -15 -75 -365 -61 -378 4 -4 60 -18 123 -31 153 -32 440 -35 535 -6 216 67
335 217 335 424 0 122 -62 223 -195 319 -58 41 -125 75 -353 179 -130 60 -192
140 -192 246 0 82 19 128 75 185 40 40 62 54 111 67 75 21 145 22 234 1 l69
-15 15 -52 c8 -29 25 -92 37 -140 23 -85 24 -88 49 -82 14 4 28 9 31 13 11 12
69 336 61 343 -26 24 -400 45 -532 30z"/>
<path d="M9655 2871 c-84 -11 -154 -36 -222 -80 -72 -47 -107 -87 -147 -171
-29 -60 -31 -73 -31 -170 0 -98 2 -109 30 -159 52 -94 117 -142 352 -258 227
-112 296 -160 335 -237 57 -111 -1 -277 -118 -336 -67 -33 -234 -40 -339 -13
l-69 18 -22 75 c-53 185 -55 190 -72 190 -35 0 -44 -21 -73 -166 -16 -82 -31
-159 -34 -170 -4 -20 2 -23 80 -38 174 -35 457 -38 575 -6 148 40 277 143 319
254 18 49 22 78 20 170 -1 99 -4 116 -27 160 -56 103 -219 216 -450 312 -174
72 -252 156 -252 270 0 113 48 197 137 241 52 25 69 28 158 28 55 0 121 -6
147 -14 l46 -13 27 -112 c15 -61 28 -117 31 -123 2 -8 -6 -13 -21 -13 -22 0
-25 4 -25 40 0 47 -26 68 -60 50 -19 -10 -21 -19 -18 -88 l3 -77 100 0 100 0
33 194 c18 107 31 200 28 206 -2 7 -33 18 -68 24 -79 14 -393 22 -473 12z"/>
<path d="M6730 2701 c0 -145 2 -170 16 -175 28 -11 150 -6 162 6 7 7 12 40 12
79 0 75 -12 94 -55 83 -25 -6 -27 -10 -23 -50 2 -34 0 -44 -12 -44 -12 0 -15
18 -15 100 0 55 2 100 5 100 16 0 105 -32 116 -41 12 -9 14 -123 14 -641 0
-385 -4 -636 -10 -647 -6 -12 -36 -25 -80 -37 -71 -18 -74 -21 -64 -61 l6 -23
529 0 c290 0 530 3 532 8 6 9 30 392 26 396 -2 2 -18 2 -35 -1 -28 -4 -36 -16
-99 -144 l-69 -139 -253 0 -253 0 0 688 c0 522 -3 691 -12 700 -9 9 -73 12
-225 12 l-213 0 0 -169z"/>
<path d="M8024 2856 c-13 -34 2 -48 77 -72 60 -19 78 -29 83 -47 11 -40 7
-1247 -4 -1267 -7 -13 -37 -27 -85 -41 -73 -22 -82 -30 -69 -63 5 -14 61 -16
529 -16 490 0 524 1 529 18 3 9 10 95 16 191 9 141 9 176 -2 182 -17 11 -189
11 -206 0 -9 -5 -12 -29 -10 -82 l3 -74 30 0 c28 0 30 3 35 45 5 43 7 45 36
45 l31 0 -44 -95 c-25 -52 -47 -101 -50 -107 -4 -10 -64 -13 -254 -13 l-249 0
0 305 0 305 175 0 174 0 15 -51 c9 -28 18 -66 22 -86 7 -38 22 -48 59 -39 l25
6 0 226 0 225 -37 -3 c-37 -3 -37 -3 -54 -71 -9 -37 -22 -74 -29 -82 -10 -12
-44 -15 -181 -15 l-169 0 0 329 c0 330 0 330 -22 345 -32 23 -366 24 -374 2z"/>
<path d="M8487 2863 c-4 -3 -7 -30 -7 -60 l0 -53 208 0 208 0 29 -116 c17 -64
33 -120 36 -126 5 -7 16 -7 35 -1 27 9 29 13 60 179 23 123 29 171 20 176 -14
10 -580 10 -589 1z"/>
<path d="M5691 1098 c-142 -21 -234 -135 -234 -288 0 -126 54 -216 157 -261
70 -31 172 -31 241 0 49 21 105 66 105 83 0 5 -15 16 -34 25 -35 16 -35 16
-70 -15 -63 -55 -153 -62 -222 -17 -38 24 -81 100 -89 153 -12 89 42 199 111
228 40 17 127 18 157 3 12 -6 34 -23 49 -37 27 -25 29 -25 63 -9 19 9 35 21
35 26 0 13 -64 67 -103 88 -44 23 -102 30 -166 21z"/>
<path d="M4902 883 c3 -211 4 -219 28 -262 78 -136 347 -129 411 12 16 37 19
67 19 255 l0 212 -39 0 -39 0 -3 -202 c-4 -188 -6 -206 -26 -238 -27 -44 -52
-59 -106 -66 -50 -6 -100 16 -131 59 -19 26 -21 46 -26 235 l-5 207 -43 3 -44
3 4 -218z"/>
<path d="M6030 816 l0 -286 165 0 165 0 0 35 0 35 -120 0 -120 0 -2 248 -3
247 -42 3 -43 3 0 -285z"/>
<path d="M6501 823 c-61 -153 -111 -281 -111 -285 0 -5 21 -8 46 -8 l45 0 27
60 26 61 130 -3 130 -3 19 -57 20 -58 49 0 c36 0 49 3 45 13 -46 108 -87 212
-97 243 -23 77 -114 299 -124 306 -6 4 -29 8 -52 8 l-41 0 -112 -277z m216 27
l49 -125 -102 3 -103 3 24 62 c57 152 74 191 80 185 1 -2 25 -59 52 -128z"/>
<path d="M4460 995 l0 -55 -35 0 c-33 0 -35 -2 -35 -35 0 -33 2 -35 35 -35
l35 0 0 -137 c0 -91 5 -147 13 -163 17 -33 61 -53 100 -46 49 10 61 20 53 50
-6 24 -10 26 -41 20 -42 -8 -44 -3 -47 159 l-3 117 38 0 c36 0 37 1 37 35 0
34 -1 35 -37 35 l-38 0 3 55 4 55 -41 0 -41 0 0 -55z"/>
<path d="M4085 930 c-22 -10 -48 -25 -57 -33 -20 -15 -24 -37 -8 -37 6 0 10
-7 10 -15 0 -21 17 -19 52 7 17 12 52 23 79 26 41 4 51 1 73 -21 18 -18 26
-37 26 -62 l0 -36 -31 17 c-17 8 -55 16 -85 16 -119 1 -187 -95 -139 -196 30
-62 133 -91 209 -58 37 17 46 18 46 6 0 -10 12 -14 40 -14 l40 0 0 163 c0 183
-8 210 -73 240 -47 23 -132 21 -182 -3z m138 -211 c30 -16 37 -28 37 -71 0
-31 -5 -40 -30 -53 -46 -24 -106 -20 -135 10 -52 51 -13 125 65 125 23 0 51
-5 63 -11z"/>
</g>
</svg>
